<svg width="44" height="44" viewBox="0 0 44 44" fill="none" xmlns="http://www.w3.org/2000/svg">
<path d="M42.8214 15.7143H30.6429C29.3366 15.7143 28.2857 14.6634 28.2857 13.3571V1.17857C28.2857 0.530357 28.8161 0 29.4643 0H33.3929C34.0411 0 34.5714 0.530357 34.5714 1.17857V9.42857H42.8214C43.4696 9.42857 44 9.95893 44 10.6071V14.5357C44 15.1839 43.4696 15.7143 42.8214 15.7143ZM15.7143 13.3571V1.17857C15.7143 0.530357 15.1839 0 14.5357 0H10.6071C9.95893 0 9.42857 0.530357 9.42857 1.17857V9.42857H1.17857C0.530357 9.42857 0 9.95893 0 10.6071V14.5357C0 15.1839 0.530357 15.7143 1.17857 15.7143H13.3571C14.6634 15.7143 15.7143 14.6634 15.7143 13.3571ZM15.7143 42.8214V30.6429C15.7143 29.3366 14.6634 28.2857 13.3571 28.2857H1.17857C0.530357 28.2857 0 28.8161 0 29.4643V33.3929C0 34.0411 0.530357 34.5714 1.17857 34.5714H9.42857V42.8214C9.42857 43.4696 9.95893 44 10.6071 44H14.5357C15.1839 44 15.7143 43.4696 15.7143 42.8214ZM34.5714 42.8214V34.5714H42.8214C43.4696 34.5714 44 34.0411 44 33.3929V29.4643C44 28.8161 43.4696 28.2857 42.8214 28.2857H30.6429C29.3366 28.2857 28.2857 29.3366 28.2857 30.6429V42.8214C28.2857 43.4696 28.8161 44 29.4643 44H33.3929C34.0411 44 34.5714 43.4696 34.5714 42.8214Z" fill="black"/>
</svg>
