<svg width="384" height="261" viewBox="0 0 384 261" fill="none" xmlns="http://www.w3.org/2000/svg">
<path d="M261.5 0H27.5C12.3125 0 0.5 12.375 0.5 27V189C0.5 204.188 12.3125 216 27.5 216H261.5C276.125 216 288.5 204.188 288.5 189V27C288.5 12.375 276.125 0 261.5 0ZM261.5 27V50.0625C248.562 60.75 228.312 76.5 185.562 110.25C176 117.562 157.438 135.562 144.5 135C131 135.562 112.438 117.562 102.875 110.25C60.125 76.5 39.875 60.75 27.5 50.0625V27H261.5ZM27.5 189V84.9375C39.875 95.0625 58.4375 109.688 86 131.625C98.375 141.188 120.312 162.562 144.5 162C168.125 162.562 189.5 141.188 202.438 131.625C230 109.688 248.562 95.0625 261.5 84.9375V189H27.5Z" fill="white"/>
<rect x="245" y="135" width="81" height="79" fill="white"/>
<path d="M344.062 173.5C344.062 140.562 316.938 113.438 284 113.438C250.82 113.438 223.938 140.562 223.938 173.5C223.938 206.68 250.82 233.562 284 233.562C316.938 233.562 344.062 206.68 344.062 173.5ZM276.977 205.469C275.523 206.922 272.859 206.922 271.406 205.469L246.219 180.281C244.766 178.828 244.766 176.164 246.219 174.711L251.789 169.383C253.242 167.688 255.664 167.688 257.117 169.383L274.312 186.336L310.641 150.008C312.094 148.312 314.516 148.312 315.969 150.008L321.539 155.336C322.992 156.789 322.992 159.453 321.539 160.906L276.977 205.469Z" fill="#44EB5F"/>
</svg>
