<svg width="64" height="64" viewBox="0 0 64 64" fill="none" xmlns="http://www.w3.org/2000/svg">
<circle cx="32" cy="32" r="32" fill="#C4C4C4"/>
<g clip-path="url(#clip0)">
<path d="M36.0944 38.2331L35.5378 38.128L35.1616 38.5514L33.4263 40.5035C33.3574 40.581 33.2729 40.6431 33.1783 40.6856C33.0837 40.728 32.9812 40.75 32.8775 40.75H32.8774H30.1875H29.1875V41.75V44.6406C29.1875 45.0462 28.8587 45.375 28.4531 45.375H25.5625H24.5625V46.375V49.2656C24.5625 49.6712 24.2337 50 23.8281 50H15.7344C15.3288 50 15 49.6712 15 49.2656V43.6246C15 43.4299 15.0774 43.2431 15.2151 43.1053C15.2151 43.1053 15.2151 43.1053 15.2151 43.1053L26.9078 31.4126L27.3432 30.9772L27.1504 30.3923C26.7696 29.2376 26.5625 28.0032 26.5625 26.7188C26.5625 20.2467 31.8091 15.0001 38.2812 15C44.774 14.9999 50 20.2259 50 26.7188C50 33.1909 44.7533 38.4375 38.2812 38.4375C37.5337 38.4375 36.803 38.3668 36.0944 38.2331ZM37.2812 23.25C37.2812 25.718 39.282 27.7188 41.75 27.7188C44.218 27.7188 46.2188 25.718 46.2188 23.25C46.2188 20.782 44.218 18.7812 41.75 18.7812C39.282 18.7812 37.2812 20.782 37.2812 23.25Z" fill="#FF731D" stroke="black" stroke-width="2"/>
</g>
<defs>
<clipPath id="clip0">
<rect width="37" height="37" fill="white" transform="translate(14 14)"/>
</clipPath>
</defs>
</svg>
