<?xml version="1.0" encoding="utf-8"?>
<!DOCTYPE svg PUBLIC "-//W3C//DTD SVG 1.1//EN" "http://www.w3.org/Graphics/SVG/1.1/DTD/svg11.dtd">
<svg version="1.1" xmlns="http://www.w3.org/2000/svg" xmlns:xlink="http://www.w3.org/1999/xlink" x="0px" y="0px" viewBox="0 0 1000 1000" enable-background="new 0 0 1000 1000" xml:space="preserve">
<g><g><path d="M408.1,839.8c0-50.7,41.1-91.9,91.9-91.9c50.7,0,91.9,41.1,91.9,91.9c0,50.7-41.1,91.9-91.9,91.9C449.3,931.7,408.1,890.6,408.1,839.8z M10,441.7c0-50.7,41.1-91.9,91.9-91.9s91.9,41.1,91.9,91.9s-41.1,91.9-91.9,91.9S10,492.4,10,441.7z M806.3,441.7c0-50.7,41.1-91.9,91.9-91.9S990,391,990,441.7s-41.1,91.9-91.9,91.9S806.3,492.4,806.3,441.7z M126.6,160.2c0-50.7,41.1-91.9,91.9-91.9c50.7,0,91.9,41.1,91.9,91.9s-41.1,91.9-91.9,91.9C167.7,252.1,126.6,210.9,126.6,160.2z M689.6,723.2c0-50.7,41.1-91.9,91.9-91.9s91.9,41.1,91.9,91.9s-41.1,91.9-91.9,91.9S689.6,774,689.6,723.2z M126.6,723.2c0-50.7,41.1-91.9,91.9-91.9c50.7,0,91.9,41.1,91.9,91.9s-41.1,91.9-91.9,91.9C167.7,815.1,126.6,774,126.6,723.2z M689.6,160.2c0-50.7,41.1-91.9,91.9-91.9s91.9,41.1,91.9,91.9s-41.1,91.9-91.9,91.9S689.6,210.9,689.6,160.2z"/></g></g>
</svg>