<svg width="41" height="27" viewBox="0 0 41 27" fill="none" xmlns="http://www.w3.org/2000/svg">
<path d="M20.25 5.625C19.4766 5.69531 18.7031 5.76562 18 5.97656C18.3516 6.53906 18.4922 7.24219 18.5625 7.875C18.5625 10.0547 16.7344 11.8125 14.625 11.8125C13.9219 11.8125 13.2188 11.6719 12.7266 11.3203C12.5156 12.0234 12.375 12.7266 12.375 13.5C12.375 17.8594 15.8906 21.375 20.25 21.375C24.6094 21.375 28.125 17.8594 28.125 13.5C28.125 9.21094 24.6094 5.69531 20.25 5.69531V5.625ZM40.2188 12.5156C36.4219 5.0625 28.8281 0 20.25 0C11.6016 0 4.00781 5.0625 0.210938 12.5156C0.0703125 12.7969 0 13.1484 0 13.5C0 13.9219 0.0703125 14.2734 0.210938 14.5547C4.00781 22.0078 11.6016 27 20.25 27C28.8281 27 36.4219 22.0078 40.2188 14.5547C40.3594 14.2734 40.4297 13.9219 40.4297 13.5703C40.4297 13.1484 40.3594 12.7969 40.2188 12.5156ZM20.25 23.625C13.2891 23.625 6.89062 19.7578 3.51562 13.5C6.89062 7.24219 13.2891 3.375 20.25 3.375C27.1406 3.375 33.5391 7.24219 36.9141 13.5C33.5391 19.7578 27.1406 23.625 20.25 23.625Z" fill="white"/>
</svg>
