<svg width="39" height="39" viewBox="0 0 39 39" fill="none" xmlns="http://www.w3.org/2000/svg">
<circle cx="19.5" cy="19.5" r="18.5" fill="white" stroke="#A0A0A0" stroke-width="2"/>
<path d="M17.6396 23.3813C17.6591 22.2192 17.791 21.3013 18.0351 20.6274C18.2793 19.9536 18.7773 19.2065 19.5293 18.3862L21.4482 16.4087C22.2685 15.481 22.6787 14.4849 22.6787 13.4204C22.6787 12.395 22.4101 11.5942 21.873 11.0181C21.3359 10.4321 20.5546 10.1392 19.5293 10.1392C18.5332 10.1392 17.7324 10.4028 17.1269 10.9302C16.5214 11.4575 16.2187 12.1655 16.2187 13.0542H13.5088C13.5283 11.4722 14.0898 10.1978 15.1933 9.23096C16.3066 8.25439 17.7519 7.76611 19.5293 7.76611C21.375 7.76611 22.8105 8.26416 23.8359 9.26025C24.8711 10.2466 25.3886 11.604 25.3886 13.3325C25.3886 15.0415 24.5976 16.7261 23.0156 18.3862L21.4189 19.9683C20.706 20.7593 20.3496 21.897 20.3496 23.3813H17.6396ZM17.5224 28.0249C17.5224 27.5854 17.6543 27.2192 17.9179 26.9263C18.1914 26.6235 18.5918 26.4722 19.1191 26.4722C19.6464 26.4722 20.0468 26.6235 20.3203 26.9263C20.5937 27.2192 20.7304 27.5854 20.7304 28.0249C20.7304 28.4644 20.5937 28.8306 20.3203 29.1235C20.0468 29.4067 19.6464 29.5483 19.1191 29.5483C18.5918 29.5483 18.1914 29.4067 17.9179 29.1235C17.6543 28.8306 17.5224 28.4644 17.5224 28.0249Z" fill="black"/>
</svg>
