<svg width="73" height="73" viewBox="0 0 73 73" fill="none" xmlns="http://www.w3.org/2000/svg">
<circle cx="36.5" cy="36.5" r="35.5" fill="black" stroke="#A0A0A0" stroke-width="2"/>
<path d="M32.5312 45.8864C32.5729 43.4073 32.8541 41.4489 33.375 40.0114C33.8958 38.5739 34.9583 36.9802 36.5625 35.2302L40.6562 31.0114C42.4062 29.0323 43.2812 26.9073 43.2812 24.6364C43.2812 22.4489 42.7083 20.7406 41.5625 19.5114C40.4166 18.2614 38.75 17.6364 36.5625 17.6364C34.4375 17.6364 32.7291 18.1989 31.4375 19.3239C30.1458 20.4489 29.5 21.9593 29.5 23.8552H23.7187C23.7604 20.4802 24.9583 17.7614 27.3125 15.6989C29.6875 13.6156 32.7708 12.5739 36.5625 12.5739C40.5 12.5739 43.5625 13.6364 45.75 15.7614C47.9583 17.8656 49.0625 20.7614 49.0625 24.4489C49.0625 28.0948 47.375 31.6885 44 35.2302L40.5937 38.6052C39.0729 40.2927 38.3125 42.7198 38.3125 45.8864H32.5312ZM32.2812 55.7927C32.2812 54.8552 32.5625 54.0739 33.125 53.4489C33.7083 52.8031 34.5625 52.4802 35.6875 52.4802C36.8125 52.4802 37.6666 52.8031 38.25 53.4489C38.8333 54.0739 39.125 54.8552 39.125 55.7927C39.125 56.7302 38.8333 57.5114 38.25 58.1364C37.6666 58.7406 36.8125 59.0427 35.6875 59.0427C34.5625 59.0427 33.7083 58.7406 33.125 58.1364C32.5625 57.5114 32.2812 56.7302 32.2812 55.7927Z" fill="white"/>
</svg>
